<svg xmlns="http://www.w3.org/2000/svg" width="512" height="512" viewBox="0 0 512 512" data-svgdocument="" id="_c1G4TamGfGPUK72BBczCB" class="fl-svgdocument" style="overflow: visible;" x="0" y="0" xmlns:xlink="http://www.w3.org/1999/xlink"><defs id="_STnhNoVhiBT2PAP_3aMkH" transform="matrix(1.0000000991096938, 0, 0, 1.0000000991096938, 0.7709886908563814, -0.00002986451294377762)"></defs><path text="LUSUS" text-anchor="middle" font-size="100" letter-spacing="0" side="left" offset="0.5" dx="0" dy="0" space="preserve" href="" font-family="Lilita One" font-scale="contain" transform="matrix(1.55166, 0, 0, 1.55166, 255.379, 437.03)" x="0" y="0" fill="#222630" data-fl-textpath="" id="_a-0vYUPOqmqLfqlO-t7SH" d="M-133.65-5.9L-133.65-5.9L-133.65-68.1Q-133.65-70.2 -123.5-70.2Q-113.35000000000001-70.2 -113.35000000000001-68.1L-113.35000000000001-68.1L-113.35000000000001-19.1L-97.95-19.1Q-96.15-19.1 -95.45-14.4L-95.45-14.4Q-95.15-12.1 -95.15-9.7Q-95.15-7.3 -95.45-4.8L-95.45-4.8Q-96.25 0 -98.05000000000001 0L-98.05000000000001 0L-128.85 0Q-131.05 0 -132.35-1.8Q-133.65-3.6 -133.65-5.9ZM-56.45-22.8L-56.45-68Q-56.45-70 -45.60000000000001-70Q-34.75000000000001-70 -34.75000000000001-68L-34.75000000000001-68L-34.75000000000001-22.1Q-34.75000000000001-11.9 -42.050000000000004-5.45Q-49.35000000000001 1 -62.2 1Q-75.05000000000001 1 -83.10000000000001-5.65Q-91.15-12.3 -91.15-23.6L-91.15-23.6L-91.15-67.9Q-91.15-69.9 -80.30000000000001-69.9Q-69.45-69.9 -69.45-67.9L-69.45-67.9L-69.45-22.8Q-69.45-20.8 -67.35000000000001-19.6L-67.35000000000001-19.6Q-65.15-18.4 -62.75000000000001-18.4Q-60.35000000000001-18.4 -58.400000000000006-19.5Q-56.45-20.6 -56.45-22.8L-56.45-22.8ZM-23.75-24.4L-23.75-24.4Q-21.85-22.9 -17.200000000000003-20.3Q-12.55-17.7 -8.3-17.7Q-4.050000000000001-17.7 -4.050000000000001-21L-4.050000000000001-21Q-4.050000000000001-22.5 -5.25-23.65Q-6.450000000000003-24.8 -9.650000000000002-26.3Q-12.850000000000001-27.8 -14.450000000000003-28.65Q-16.05-29.5 -18.700000000000003-31.45Q-21.35-33.4 -22.75-35.5L-22.75-35.5Q-26.75-41.2 -26.75-50Q-26.75-58.8 -20.200000000000003-64.85Q-13.650000000000002-70.9 -3.0500000000000007-70.9L-3.0500000000000007-70.9Q 4.149999999999999-70.9  10.25-69.35Q 16.35-67.8  16.549999999999997-65.3L 16.549999999999997-65.3Q 16.549999999999997-65  16.549999999999997-64.7L 16.549999999999997-64.7Q 16.549999999999997-61.2  14.350000000000001-55.85Q 12.149999999999999-50.5  11.25-49.9L 11.25-49.9Q 4.850000000000001-53.2 -0.20000000000000284-53.2Q-5.25-53.2 -5.25-49.6L-5.25-49.6Q-5.25-47.4 -1.5500000000000007-45.7L-1.5500000000000007-45.7Q-0.75-45.3  0.75-44.6Q 2.25-43.9  4.199999999999996-42.95Q 6.149999999999999-42  8.399999999999999-40.55Q 10.649999999999999-39.1  13.25-36.7L 13.25-36.7Q 18.549999999999997-31.7  18.549999999999997-23.5L 18.549999999999997-23.5Q 18.549999999999997-12.8  12.649999999999999-6Q 6.75 0.8 -5.550000000000001 1L-5.550000000000001 1Q-11.55 1 -16.400000000000002 0Q-21.25-1 -24.85-3.9Q-28.450000000000003-6.8 -28.450000000000003-10.9Q-28.450000000000003-15 -26.950000000000003-19.05Q-25.450000000000003-23.1 -23.75-24.4ZM 59.45-22.8L 59.45-68Q 59.45-70  70.3-70Q 81.15-70  81.15-68L 81.15-68L 81.15-22.1Q 81.15-11.9  73.85000000000001-5.45Q 66.55 1  53.7 1Q 40.85000000000001 1  32.800000000000004-5.65Q 24.750000000000004-12.3  24.750000000000004-23.6L 24.750000000000004-23.6L 24.750000000000004-67.9Q 24.750000000000004-69.9  35.6-69.9Q 46.45-69.9  46.45-67.9L 46.45-67.9L 46.45-22.8Q 46.45-20.8  48.550000000000004-19.6L 48.550000000000004-19.6Q 50.75-18.4  53.150000000000006-18.4Q 55.55-18.4  57.5-19.5Q 59.45-20.6  59.45-22.8L 59.45-22.8ZM 92.15-24.4L 92.15-24.4Q 94.05000000000001-22.9  98.70000000000002-20.3Q 103.35000000000001-17.7  107.60000000000001-17.7Q 111.85000000000001-17.7  111.85000000000001-21L 111.85000000000001-21Q 111.85000000000001-22.5  110.65-23.65Q 109.45000000000002-24.8  106.25000000000001-26.3Q 103.05000000000001-27.8  101.45000000000002-28.65Q 99.85000000000001-29.5  97.20000000000002-31.45Q 94.55000000000001-33.4  93.15-35.5L 93.15-35.5Q 89.15-41.2  89.15-50Q 89.15-58.8  95.70000000000002-64.85Q 102.25000000000001-70.9  112.85000000000001-70.9L 112.85000000000001-70.9Q 120.05000000000001-70.9  126.15-69.35Q 132.25-67.8  132.45000000000002-65.3L 132.45000000000002-65.3Q 132.45000000000002-65  132.45000000000002-64.7L 132.45000000000002-64.7Q 132.45000000000002-61.2  130.25-55.85Q 128.05-50.5  127.15-49.9L 127.15-49.9Q 120.75000000000001-53.2  115.70000000000002-53.2Q 110.65-53.2  110.65-49.6L 110.65-49.6Q 110.65-47.4  114.35000000000001-45.7L 114.35000000000001-45.7Q 115.15-45.3  116.65-44.6Q 118.15-43.9  120.10000000000001-42.95Q 122.05000000000001-42  124.30000000000001-40.55Q 126.55000000000001-39.1  129.15-36.7L 129.15-36.7Q 134.45000000000002-31.7  134.45000000000002-23.5L 134.45000000000002-23.5Q 134.45000000000002-12.8  128.55-6Q 122.65 0.8  110.35000000000001 1L 110.35000000000001 1Q 104.35000000000001 1  99.50000000000001 0Q 94.65-1  91.05000000000001-3.9Q 87.45000000000002-6.8  87.45000000000002-10.9Q 87.45000000000002-15  88.95000000000002-19.05Q 90.45000000000002-23.1  92.15-24.4Z"></path><path id="_mBX__mh0zoyEiQ_yAVsr2" d="M133.371,106.913c7.43,0,13.475-6.034,13.475-13.451s-6.045-13.451-13.475-13.451c-7.432,0-13.477,6.034-13.477,13.451   S125.939,106.913,133.371,106.913z M133.371,88.011c3.02,0,5.475,2.445,5.475,5.451s-2.455,5.451-5.475,5.451   s-5.477-2.445-5.477-5.451S130.352,88.011,133.371,88.011z" stroke="none" fill="#c93434" transform="matrix(2.00695, 0, 0, 2.00695, 57.4797, -25.9473)"></path><path id="_xWDLnvc_gwjeZp4ZdmT1J" d="M67.518,106.913c2.209,0,4-1.791,4-4v-5.451h5.451c2.209,0,4-1.791,4-4s-1.791-4-4-4h-5.451v-5.451c0-2.209-1.791-4-4-4   s-4,1.791-4,4v5.451h-5.451c-2.209,0-4,1.791-4,4s1.791,4,4,4h5.451v5.451C63.518,105.122,65.309,106.913,67.518,106.913z" stroke="none" fill="#34c972" transform="matrix(2.00695, 0, 0, 2.00695, 57.1299, -25.9473)"></path><g id="_4ZzgsYQZr4bvKMO1WkQs8" transform="matrix(1.38747, 0, 0, 1.38747, -95.1571, -26.4575)"><path id="_rdmd1rRy1fuR4zHagtV1Q" d="M106.717,112.697H91.283c-8.525,0-16.039,5.154-19.143,13.132l-4.645,11.938c-1.15,2.961-3.932,4.873-7.084,4.873h-8.764   c-4.217,0-7.648-3.508-7.648-7.817V72.975c0-4.311,3.432-7.817,7.648-7.817h13.375c1.281,0,2.555,0.422,3.584,1.188l8.99,6.694   c1.771,1.319,4.277,0.952,5.598-0.819c1.318-1.771,0.951-4.277-0.82-5.597l-8.99-6.695c-2.4-1.786-5.371-2.771-8.361-2.771H51.648   C43.02,57.157,36,64.253,36,72.975v61.849c0,8.722,7.02,15.817,15.648,15.817h8.764c6.479,0,12.186-3.916,14.541-9.973   l4.645-11.938c1.896-4.88,6.484-8.032,11.686-8.032h15.434c2.209,0,4-1.791,4-4S108.926,112.697,106.717,112.697z" stroke="none" fill="#222630" transform="matrix(1.4464868307113647, 0, 0, 1.4464868307113647, 109.8561782836914, -0.5686697959899902)"></path><path id="_4WCmfLhPXWw7N56Q8mAM7" d="M148.354,57.157h-13.377c-2.99,0-5.961,0.984-8.361,2.771l-6.33,4.714c-1.029,0.767-2.303,1.188-3.584,1.188H104V53.359   c0-2.209-1.791-4-4-4s-4,1.791-4,4v16.472c0,2.209,1.791,4,4,4h16.701c2.99,0,5.961-0.984,8.361-2.771l6.33-4.714   c1.029-0.767,2.303-1.188,3.584-1.188h13.377c4.217,0,7.646,3.507,7.646,7.817v61.849c0,4.31-3.43,7.817-7.646,7.817h-8.766   c-3.152,0-5.934-1.912-7.084-4.875l-4.645-11.937c-0.803-2.059-3.121-3.076-5.18-2.277c-2.059,0.801-3.078,3.119-2.277,5.178   l4.645,11.937c2.355,6.059,8.063,9.975,14.541,9.975h8.766c8.627,0,15.646-7.096,15.646-15.817V72.975   C164,64.253,156.98,57.157,148.354,57.157z" stroke="none" fill="#222630" transform="matrix(1.4464868307113647, 0, 0, 1.4464868307113647, 109.13370513916016, 0.5868387222290039)"></path></g></svg>